<svg xmlns="http://www.w3.org/2000/svg" width="32" height="32" fill="none">
  <path fill="#2D87F3" d="M23.171 2.667H4.983A.983.983 0 0 0 4 3.65v23.54c0 .544.44.984.983.984h18.188c.543 0 .983-.44.983-.983V3.65a.983.983 0 0 0-.983-.983" />
  <path fill="#BCDEFF" d="M18.251 6.32h-8.28a.307.307 0 0 1 0-.615h8.28a.307.307 0 1 1 0 .615M21.395 9.42h-7.34a.307.307 0 1 1 0-.615h7.34a.307.307 0 0 1 0 .614M21.395 12.014h-4.151a.307.307 0 0 1 0-.614h4.15a.308.308 0 0 1 0 .614M9.46 17.09H6.572a.307.307 0 1 1 0-.615h2.89a.307.307 0 1 1 0 .614M15.295 21.112H6.571a.307.307 0 0 1 0-.614h8.724a.307.307 0 0 1 0 .614M21.584 25.136H6.57a.307.307 0 0 1 0-.615h15.013a.307.307 0 0 1 0 .614" />
  <path fill="#1B3250" d="m22.67 24.778 1.118-1.12a.12.12 0 0 1 .173 0l3.736 3.736a.914.914 0 0 1-1.293 1.293l-3.735-3.735a.12.12 0 0 1-.036-.087.12.12 0 0 1 .036-.086z" />
  <path fill="#284A75" d="M17.96 27.11a8.164 8.164 0 1 0 0-16.327 8.164 8.164 0 0 0 0 16.327" />
  <path fill="#fff" d="M17.961 25.664a6.718 6.718 0 1 0 0-13.436 6.718 6.718 0 0 0 0 13.436" />
  <path fill="#FF6F4D" d="M18.28 16h-.734a1.06 1.06 0 0 0-1.06 1.06v.183a.23.23 0 0 1-.23.228h-.181a1.06 1.06 0 0 0-1.06 1.06v.735a1.06 1.06 0 0 0 1.06 1.06h.182a.23.23 0 0 1 .229.229v.182a1.06 1.06 0 0 0 1.06 1.06h.733a1.06 1.06 0 0 0 1.06-1.06v-.183a.23.23 0 0 1 .23-.23h.183a1.06 1.06 0 0 0 1.06-1.06v-.732a1.06 1.06 0 0 0-1.06-1.06h-.184a.23.23 0 0 1-.229-.228v-.184A1.06 1.06 0 0 0 18.28 16" />
</svg>