<svg xmlns="http://www.w3.org/2000/svg" width="32" height="32" fill="none">
  <path fill="#2D87F3" d="M11.288 7.948c-1.23-.004-2.455-.004-3.685 0a4.99 4.99 0 0 0-4.934 4.976 20 20 0 0 0 0 .67 4.99 4.99 0 0 0 4.934 4.978h2.235s2.356 1.767 2.39 1.533c.055-.35-.361-1.572-.361-1.572a5 5 0 0 0 4.355-4.941v-.668a4.99 4.99 0 0 0-4.934-4.976m-4.302 5.689a.37.37 0 1 1-.002-.741.37.37 0 0 1 .002.74m2.142.622a.524.524 0 1 1 0-1.048.524.524 0 0 1 0 1.048m2.524-.07a.774.774 0 1 1 .001 0z" />
  <path fill="#FFB521" d="M20.61 15.234a5.65 5.65 0 0 0-2.158 10.873s-.365 1.649-.312 1.999c.034.232 2.47-1.573 2.47-1.573a5.65 5.65 0 0 0 0-11.3zm-2.124 6.775a.774.774 0 1 1 0-1.547.774.774 0 0 1 0 1.547m2.524.071a.524.524 0 1 1 0-1.047.524.524 0 0 1 0 1.047m2.141-.622a.37.37 0 1 1 0-.741.37.37 0 0 1 0 .74" />
  <path fill="#91CAFF" d="M26.32 2.667h-6.196a3.013 3.013 0 0 0-2.999 3.294l.34 3.666a3.014 3.014 0 0 0 2.773 2.723s-.277 1.5-.224 1.85c.035.232 2.656-1.807 2.656-1.807l3.079-.035a3.01 3.01 0 0 0 2.977-2.546l.571-3.669a3.014 3.014 0 0 0-2.977-3.476m-5.366 5.705a.774.774 0 1 1 .547-.227.77.77 0 0 1-.547.227m2.524.07a.524.524 0 1 1 .37-.153.52.52 0 0 1-.37.154m2.142-.623a.37.37 0 1 1 .142-.028.4.4 0 0 1-.142.028" />
</svg>