<svg xmlns="http://www.w3.org/2000/svg" xmlns:xlink="http://www.w3.org/1999/xlink" viewBox="0 0 512 512" width="512" height="512" preserveAspectRatio="xMidYMid meet" style="width: 100%; height: 100%; transform: translate3d(0px, 0px, 0px); content-visibility: visible;">
  <defs>
    <clipPath id="__lottie_element_77">
      <rect width="512" height="512" x="0" y="0"></rect>
    </clipPath>
  </defs>
  <g clip-path="url(#__lottie_element_77)">
    <g transform="matrix(1,0,0,1,16.488937377929688,42.410003662109375)" opacity="1" style="display: block;">
      <g opacity="1" transform="matrix(1,0,0,1,237.02000427246094,201.16000366210938)">
        <path fill="rgb(27,50,80)" fill-opacity="1" d=" M197.24000549316406,80.55000305175781 C184.38999938964844,63.36000061035156 156.87445068359375,48.11697006225586 166.90444946289062,21.866968154907227 C182.58444213867188,-19.173030853271484 160.7198028564453,-41.753936767578125 141.68980407714844,-53.63393783569336 C119.62979888916016,-67.3839340209961 112.6500015258789,-98.45999908447266 105.70999908447266,-121.37000274658203 C90.5999984741211,-171.32000732421875 50.060001373291016,-200.91000366210938 0,-200.91000366210938 C-50.060001373291016,-200.91000366210938 -90.58999633789062,-171.32000732421875 -105.70999908447266,-121.36000061035156 C-112.63999938964844,-98.44999694824219 -119.60980224609375,-67.18696594238281 -141.6798095703125,-53.43696975708008 C-160.70980834960938,-41.56696701049805 -183.84091186523438,-19.048385620117188 -168.15090942382812,22.001615524291992 C-158.12091064453125,48.25161361694336 -184.7016143798828,63.816261291503906 -197.55162048339844,80.99626159667969 C-237.0816192626953,133.88626098632812 -197.6637420654297,190.94444274902344 -139.0037384033203,200.2244415283203 C-139.0037384033203,200.2244415283203 138.44284057617188,200.34909057617188 138.44284057617188,200.34909057617188 C197.1028289794922,191.05909729003906 236.77000427246094,133.44000244140625 197.24000549316406,80.55000305175781z"></path>
      </g>
      <g opacity="1" transform="matrix(1,0,0,1,137.27000427246094,183.75999450683594)">
        <path fill="rgb(255,180,151)" fill-opacity="1" d=" M-6.590000152587891,-24.559999465942383 C-17.040000915527344,-19.81999969482422 -19.56999969482422,-6.880000114440918 -16.139999389648438,4.929999828338623 C-13.989999771118164,12.270000457763672 -9.029999732971191,18.459999084472656 -2.3499999046325684,22.170000076293945 C4.329999923706055,25.8799991607666 12.199999809265137,26.799999237060547 19.559999465942383,24.729999542236328 C19.559999465942383,24.729999542236328 11.510000228881836,-24.350000381469727 11.510000228881836,-24.350000381469727 C5.71999979019165,-26.719999313354492 -0.75,-26.790000915527344 -6.590000152587891,-24.559999465942383z"></path>
      </g>
      <g opacity="1" transform="matrix(1,0,0,1,147.6300048828125,182.2100067138672)">
        <path fill="rgb(255,151,123)" fill-opacity="1" d=" M10.619999885559082,10.069999694824219 C9.819999694824219,10.069999694824219 9.039999961853027,9.890000343322754 8.319999694824219,9.539999961853027 C7.599999904632568,9.1899995803833 6.980000019073486,8.680000305175781 6.5,8.039999961853027 C0.7099999785423279,0.4300000071525574 -10.59000015258789,0.23999999463558197 -10.6899995803833,0.23999999463558197 C-12.0600004196167,0.23999999463558197 -13.359999656677246,-0.3100000023841858 -14.329999923706055,-1.2799999713897705 C-15.289999961853027,-2.25 -15.829999923706055,-3.559999942779541 -15.829999923706055,-4.929999828338623 C-15.829999923706055,-6.300000190734863 -15.289999961853027,-7.610000133514404 -14.319999694824219,-8.569999694824219 C-13.350000381469727,-9.529999732971191 -12.039999961853027,-10.069999694824219 -10.670000076293945,-10.069999694824219 C-10,-10.069999694824219 5.789999961853027,-9.9399995803833 14.720000267028809,1.7899999618530273 C15.300000190734863,2.549999952316284 15.65999984741211,3.4700000286102295 15.75,4.429999828338623 C15.84000015258789,5.389999866485596 15.670000076293945,6.349999904632568 15.239999771118164,7.210000038146973 C14.8100004196167,8.069999694824219 14.15999984741211,8.789999961853027 13.34000015258789,9.300000190734863 C12.520000457763672,9.8100004196167 11.579999923706055,10.069999694824219 10.619999885559082,10.069999694824219 C10.619999885559082,10.069999694824219 10.619999885559082,10.069999694824219 10.619999885559082,10.069999694824219z"></path>
      </g>
      <g opacity="1" transform="matrix(1,0,0,1,336.7699890136719,183.75999450683594)">
        <path fill="rgb(255,180,151)" fill-opacity="1" d=" M6.590000152587891,-24.549999237060547 C0.75,-26.780000686645508 -5.71999979019165,-26.700000762939453 -11.510000228881836,-24.31999969482422 C-11.510000228881836,-24.31999969482422 -19.559999465942383,24.719999313354492 -19.559999465942383,24.719999313354492 C-12.199999809265137,26.790000915527344 -4.320000171661377,25.8700008392334 2.359999895095825,22.15999984741211 C9.039999961853027,18.450000762939453 14,12.260000228881836 16.139999389648438,4.920000076293945 C19.56999969482422,-6.889999866485596 17.040000915527344,-19.81999969482422 6.590000152587891,-24.549999237060547z"></path>
      </g>
      <g opacity="1" transform="matrix(1,0,0,1,326.4200134277344,182.2100067138672)">
        <path fill="rgb(255,151,123)" fill-opacity="1" d=" M-10.609999656677246,10.069999694824219 C-11.569999694824219,10.069999694824219 -12.510000228881836,9.8100004196167 -13.329999923706055,9.300000190734863 C-14.149999618530273,8.789999961853027 -14.800000190734863,8.069999694824219 -15.229999542236328,7.210000038146973 C-15.65999984741211,6.349999904632568 -15.84000015258789,5.389999866485596 -15.75,4.429999828338623 C-15.65999984741211,3.4700000286102295 -15.300000190734863,2.549999952316284 -14.720000267028809,1.7899999618530273 C-5.78000020980835,-9.9399995803833 10,-10.069999694824219 10.670000076293945,-10.069999694824219 C12.039999961853027,-10.069999694824219 13.350000381469727,-9.529999732971191 14.319999694824219,-8.569999694824219 C15.289999961853027,-7.610000133514404 15.84000015258789,-6.300000190734863 15.84000015258789,-4.929999828338623 C15.84000015258789,-3.559999942779541 15.300000190734863,-2.25 14.329999923706055,-1.2799999713897705 C13.369999885559082,-0.3100000023841858 12.0600004196167,0.23999999463558197 10.6899995803833,0.23999999463558197 C10.579999923706055,0.23999999463558197 -0.7200000286102295,0.4300000071525574 -6.5,8.039999961853027 C-6.980000019073486,8.670000076293945 -7.599999904632568,9.1899995803833 -8.319999694824219,9.539999961853027 C-9.029999732971191,9.890000343322754 -9.8100004196167,10.069999694824219 -10.609999656677246,10.069999694824219z"></path>
      </g>
      <g opacity="1" transform="matrix(1,0,0,1,237.02000427246094,350.55999755859375)">
        <path fill="rgb(227,242,255)" fill-opacity="1" d=" M140.47000122070312,59.279998779296875 C140.47000122070312,59.279998779296875 -140.47000122070312,59.279998779296875 -140.47000122070312,59.279998779296875 C-140.99000549316406,59.279998779296875 -141.50999450683594,59.16999816894531 -141.97999572753906,58.939998626708984 C-142.4499969482422,58.709999084472656 -142.8699951171875,58.38999938964844 -143.19000244140625,57.97999954223633 C-143.50999450683594,57.56999969482422 -143.74000549316406,57.09000015258789 -143.85000610351562,56.58000183105469 C-143.9600067138672,56.06999969482422 -143.9499969482422,55.54999923706055 -143.8300018310547,55.040000915527344 C-139.25,36.29999923706055 -124.63999938964844,8.520000457763672 -106.94999694824219,-9.710000038146973 C-94.69000244140625,-21.520000457763672 -80.55000305175781,-31.200000762939453 -65.11000061035156,-38.349998474121094 C-64.75,-38.529998779296875 -64.44000244140625,-38.77000045776367 -64.16999816894531,-39.060001373291016 C-55.779998779296875,-47.5 -45.70000076293945,-54.08000183105469 -34.599998474121094,-58.36000061035156 C-34.0099983215332,-59.25 33.90999984741211,-59.290000915527344 34.529998779296875,-58.36000061035156 C34.529998779296875,-58.36000061035156 34.56999969482422,-58.31999969482422 34.56999969482422,-58.31999969482422 C45.68000030517578,-54.06999969482422 55.77000045776367,-47.5099983215332 64.1500015258789,-39.06999969482422 C64.41999816894531,-38.77000045776367 64.73999786376953,-38.529998779296875 65.0999984741211,-38.36000061035156 C80.54000091552734,-31.200000762939453 94.69000244140625,-21.520000457763672 106.94999694824219,-9.710000038146973 C124.63999938964844,8.510000228881836 139.27000427246094,36.29999923706055 143.83999633789062,55.040000915527344 C143.9600067138672,55.54999923706055 143.9600067138672,56.06999969482422 143.85000610351562,56.58000183105469 C143.74000549316406,57.09000015258789 143.50999450683594,57.56999969482422 143.19000244140625,57.97999954223633 C142.8699951171875,58.38999938964844 142.4499969482422,58.709999084472656 141.97999572753906,58.939998626708984 C141.50999450683594,59.16999816894531 140.99000549316406,59.279998779296875 140.47000122070312,59.279998779296875z"></path>
      </g>
      <g opacity="1" transform="matrix(1,0,0,1,237.00999450683594,297.010009765625)">
        <path fill="rgb(252,202,175)" fill-opacity="1" d=" M34.56999969482422,-4.809999942779541 C9.920000076293945,28.020000457763672 -13.119999885559082,27.8799991607666 -34.56999969482422,-4.809999942779541 C-32.619998931884766,-7.710000038146973 -31.1200008392334,-10.890000343322754 -30.100000381469727,-14.229999542236328 C-29.959999084472656,-14.569999694824219 -29.850000381469727,-14.960000038146973 -29.75,-15.300000190734863 C-29.280000686645508,-17 -28.920000076293945,-18.709999084472656 -28.649999618530273,-20.450000762939453 C-28.270000457763672,-22.950000762939453 -28.079999923706055,-25.489999771118164 -28.100000381469727,-28.020000457763672 C-28.100000381469727,-28.020000457763672 28.100000381469727,-28.020000457763672 28.100000381469727,-28.020000457763672 C28.079999923706055,-25.489999771118164 28.270000457763672,-22.950000762939453 28.649999618530273,-20.450000762939453 C28.8700008392334,-18.8799991607666 29.200000762939453,-17.34000015258789 29.6200008392334,-15.8100004196167 C29.760000228881836,-15.25 29.93000030517578,-14.699999809265137 30.1299991607666,-14.15999984741211 C31.149999618530273,-10.850000381469727 32.650001525878906,-7.699999809265137 34.56999969482422,-4.809999942779541z"></path>
      </g>
      <g opacity="1" transform="matrix(1,0,0,1,232.9199981689453,351.0199890136719)">
        <path fill="rgb(45,135,243)" fill-opacity="1" d=" M58.619998931884766,58.81999969482422 C58.619998931884766,58.81999969482422 -46.7400016784668,58.81999969482422 -46.7400016784668,58.81999969482422 C-60.650001525878906,-34.25 -30.479999542236328,-58.81999969482422 -30.479999542236328,-58.81999969482422 C-24.020000457763672,-49.7400016784668 -10.989999771118164,-43.59000015258789 4.099999904632568,-43.59000015258789 C19.190000534057617,-43.59000015258789 32.220001220703125,-49.7400016784668 38.650001525878906,-58.81999969482422 C38.650001525878906,-58.81999969482422 38.68000030517578,-58.779998779296875 38.68000030517578,-58.779998779296875 C39.470001220703125,-58.060001373291016 48.41999816894531,-46.2400016784668 54.810001373291016,-21.389999389648438 C59.86000061035156,-1.7200000286102295 60.650001525878906,38.540000915527344 58.619998931884766,58.81999969482422z"></path>
      </g>
      <g opacity="1" transform="matrix(1,0,0,1,180.5399932861328,351.010009765625)">
        <path fill="rgb(188,222,255)" fill-opacity="1" d=" M21.899999618530273,-58.83000183105469 C10.600000381469727,-54.4900016784668 0.3700000047683716,-47.75 -8.079999923706055,-39.08000183105469 C-15.069999694824219,-31.3799991607666 -19.639999389648438,-21.790000915527344 -21.209999084472656,-11.510000228881836 C-21.899999618530273,-8.020000457763672 -10.979999542236328,-10.270000457763672 -5.400000095367432,-11.640000343322754 C-5.28000020980835,-11.670000076293945 -5.139999866485596,-11.649999618530273 -5.03000020980835,-11.600000381469727 C-4.920000076293945,-11.539999961853027 -4.829999923706055,-11.449999809265137 -4.78000020980835,-11.34000015258789 C-4.730000019073486,-11.220000267028809 -4.71999979019165,-11.09000015258789 -4.75,-10.970000267028809 C-4.78000020980835,-10.850000381469727 -4.860000133514404,-10.739999771118164 -4.960000038146973,-10.670000076293945 C-17.329999923706055,-1.9700000286102295 -21.639999389648438,8.8100004196167 -20.959999084472656,14.529999732971191 C-18.709999084472656,29.8799991607666 -14.1899995803833,44.810001373291016 -7.550000190734863,58.83000183105469 C-7.550000190734863,58.83000183105469 18.81999969482422,58.83000183105469 18.81999969482422,58.83000183105469 C18.81999969482422,58.83000183105469 6.420000076293945,-13.75 21.899999618530273,-58.83000183105469z"></path>
      </g>
      <g opacity="1" transform="matrix(1,0,0,1,293.489990234375,351.0199890136719)">
        <path fill="rgb(188,222,255)" fill-opacity="1" d=" M4.960000038146973,-10.65999984741211 C4.860000133514404,-10.729999542236328 4.78000020980835,-10.84000015258789 4.75,-10.960000038146973 C4.71999979019165,-11.079999923706055 4.730000019073486,-11.210000038146973 4.78000020980835,-11.329999923706055 C4.829999923706055,-11.4399995803833 4.929999828338623,-11.529999732971191 5.039999961853027,-11.59000015258789 C5.150000095367432,-11.649999618530273 5.28000020980835,-11.670000076293945 5.400000095367432,-11.640000343322754 C10.989999771118164,-10.260000228881836 21.93000030517578,-8.029999732971191 21.219999313354492,-11.520000457763672 C19.65999984741211,-21.809999465942383 15.100000381469727,-31.399999618530273 8.09000015258789,-39.09000015258789 C-0.36000001430511475,-47.77000045776367 -10.600000381469727,-54.5 -21.920000076293945,-58.81999969482422 C-6.449999809265137,-13.739999771118164 -18.829999923706055,58.81999969482422 -18.829999923706055,58.81999969482422 C-18.829999923706055,58.81999969482422 7.539999961853027,58.81999969482422 7.539999961853027,58.81999969482422 C14.180000305175781,44.79999923706055 18.700000762939453,29.8799991607666 20.950000762939453,14.529999732971191 C21.649999618530273,8.8100004196167 17.360000610351562,-1.9700000286102295 4.960000038146973,-10.65999984741211z"></path>
      </g>
      <g opacity="1" transform="matrix(1,0,0,1,237.02000427246094,284.80999755859375)">
        <path fill="rgb(255,151,123)" fill-opacity="1" d=" M30.110000610351562,-1.9600000381469727 C10.140000343322754,15.739999771118164 -9.930000305175781,15.8100004196167 -30.110000610351562,-2.0299999713897705 C-29.969999313354492,-2.369999885559082 -29.8700008392334,-2.75 -29.770000457763672,-3.0899999141693115 C-29.299999237060547,-4.789999961853027 -28.940000534057617,-6.510000228881836 -28.670000076293945,-8.25 C-28.290000915527344,-10.75 -28.100000381469727,-13.279999732971191 -28.1200008392334,-15.8100004196167 C-28.1200008392334,-15.8100004196167 28.09000015258789,-15.8100004196167 28.09000015258789,-15.8100004196167 C28.06999969482422,-13.279999732971191 28.260000228881836,-10.75 28.639999389648438,-8.25 C28.860000610351562,-6.679999828338623 29.18000030517578,-5.139999866485596 29.600000381469727,-3.609999895095825 C29.739999771118164,-3.049999952316284 29.90999984741211,-2.5 30.110000610351562,-1.9600000381469727z"></path>
      </g>
      <g opacity="1" transform="matrix(1,0,0,1,237.02999877929688,159.19000244140625)">
        <path fill="rgb(252,202,175)" fill-opacity="1" d=" M88.25,3.6600000858306885 C84.68000030517578,57.31999969482422 70.81999969482422,83.06999969482422 49.33000183105469,99.73999786376953 C35.029998779296875,110.5 11.619999885559082,123.36000061035156 0,123.36000061035156 C-11.619999885559082,123.36000061035156 -35.029998779296875,110.5 -49.33000183105469,99.73999786376953 C-70.80999755859375,83.06999969482422 -84.66000366210938,57.31999969482422 -88.23999786376953,3.6600000858306885 C-35.68000030517578,-17.170000076293945 -58.130001068115234,-123.36000061035156 -3.0199999809265137,-95.13999938964844 C-2.0799999237060547,-94.66999816894531 -1.0499999523162842,-94.41000366210938 0,-94.41000366210938 C1.0499999523162842,-94.41000366210938 2.0899999141693115,-94.66999816894531 3.0299999713897705,-95.13999938964844 C58.13999938964844,-123.36000061035156 35.689998626708984,-17.190000534057617 88.25,3.6600000858306885z"></path>
      </g>
      <g opacity="1" transform="matrix(1,0,0,1,190.25,111.02999877929688)">
        <path fill="rgb(255,180,151)" fill-opacity="1" d=" M41.88999938964844,-47.130001068115234 C14.420000076293945,-59.02000045776367 7.320000171661377,-35.33000183105469 -1.0800000429153442,-7.289999961853027 C-8.5600004196167,17.670000076293945 -17.059999465942383,46.08000183105469 -41.88999938964844,55.91999816894531 C-41.81999969482422,56.90999984741211 -41.7599983215332,57.880001068115234 -41.689998626708984,58.849998474121094 C1.3300000429153442,59.02000045776367 29.56999969482422,-3.430000066757202 41.88999938964844,-47.130001068115234z"></path>
      </g>
    </g>
    <g transform="matrix(1,0,0,1,241.2889404296875,232.79000854492188)" opacity="1" style="display: block;">
      <g opacity="1" transform="matrix(1,0,0,1,12.1899995803833,6.659999847412109)">
        <path fill="rgb(255,151,123)" fill-opacity="1" d=" M6.78000020980835,-6.309999942779541 C6.010000228881836,-6.309999942779541 5.25,-6.139999866485596 4.559999942779541,-5.809999942779541 C3.869999885559082,-5.480000019073486 3.259999990463257,-5 2.7799999713897705,-4.400000095367432 C1.8899999856948853,-4.119999885559082 0.949999988079071,-3.9600000381469727 0.019999999552965164,-3.9100000858306885 C-0.9300000071525574,-3.9600000381469727 -1.8700000047683716,-4.130000114440918 -2.7799999713897705,-4.409999847412109 C-3.450000047683716,-5.239999771118164 -4.369999885559082,-5.829999923706055 -5.389999866485596,-6.119999885559082 C-6.420000076293945,-6.409999847412109 -7.510000228881836,-6.369999885559082 -8.510000228881836,-6.010000228881836 C-9.510000228881836,-5.650000095367432 -10.380000114440918,-5 -10.989999771118164,-4.130000114440918 C-11.600000381469727,-3.259999990463257 -11.9399995803833,-2.2100000381469727 -11.9399995803833,-1.149999976158142 C-11.9399995803833,5.039999961853027 -3.309999942779541,6.409999847412109 0.019999999552965164,6.409999847412109 C3.3499999046325684,6.409999847412109 11.9399995803833,5.039999961853027 11.9399995803833,-1.149999976158142 C11.9399995803833,-1.8300000429153442 11.8100004196167,-2.5 11.550000190734863,-3.130000114440918 C11.289999961853027,-3.759999990463257 10.90999984741211,-4.320000171661377 10.430000305175781,-4.800000190734863 C9.949999809265137,-5.28000020980835 9.380000114440918,-5.659999847412109 8.75,-5.920000076293945 C8.119999885559082,-6.179999828338623 7.460000038146973,-6.309999942779541 6.78000020980835,-6.309999942779541z"></path>
      </g>
    </g>
    <g transform="matrix(1,0,0,1,283.2082824707031,189.4493408203125)" opacity="1" style="display: block;">
      <g opacity="1" transform="matrix(1,0,0,1,21.59000015258789,8.3100004196167)">
        <path fill="rgb(27,50,80)" fill-opacity="1" d=" M-18.68000030517578,-1.649999976158142 C-15.75,-3.4100000858306885 -12.670000076293945,-4.920000076293945 -9.479999542236328,-6.150000095367432 C-6,-7.480000019073486 -2.2799999713897705,-8.0600004196167 1.440000057220459,-7.869999885559082 C4.940000057220459,-7.679999828338623 8.390000343322754,-6.949999809265137 11.670000076293945,-5.699999809265137 C14.819999694824219,-4.449999809265137 17.639999389648438,-2.5999999046325684 19.940000534057617,-1.5700000524520874 C19.940000534057617,-1.5700000524520874 20.280000686645508,-1.4299999475479126 20.280000686645508,-1.4299999475479126 C20.6299991607666,-1.2799999713897705 20.920000076293945,-1 21.100000381469727,-0.6600000262260437 C21.280000686645508,-0.3199999928474426 21.34000015258789,0.07000000029802322 21.260000228881836,0.44999998807907104 C21.18000030517578,0.8299999833106995 20.989999771118164,1.1699999570846558 20.690000534057617,1.4199999570846558 C20.389999389648438,1.6699999570846558 20.020000457763672,1.7999999523162842 19.6299991607666,1.809999942779541 C16.360000610351562,1.6200000047683716 13.109999656677246,1.149999976158142 9.920000076293945,0.4099999964237213 C7.139999866485596,0.009999999776482582 4.329999923706055,-0.09000000357627869 1.5299999713897705,0.12999999523162842 C-1.0499999523162842,0.4000000059604645 -3.549999952316284,1.1699999570846558 -5.829999923706055,2.4000000953674316 C-8.350000381469727,3.7799999713897705 -10.779999732971191,5.329999923706055 -13.09000015258789,7.03000020980835 C-13.640000343322754,7.429999828338623 -14.25,7.71999979019165 -14.90999984741211,7.880000114440918 C-15.569999694824219,8.039999961853027 -16.260000228881836,8.069999694824219 -16.93000030517578,7.960000038146973 C-17.600000381469727,7.860000133514404 -18.239999771118164,7.610000133514404 -18.81999969482422,7.260000228881836 C-19.399999618530273,6.909999847412109 -19.899999618530273,6.449999809265137 -20.299999237060547,5.900000095367432 C-20.700000762939453,5.349999904632568 -20.989999771118164,4.730000019073486 -21.149999618530273,4.070000171661377 C-21.309999465942383,3.4100000858306885 -21.329999923706055,2.7300000190734863 -21.229999542236328,2.059999942779541 C-21.1200008392334,1.3899999856948853 -20.889999389648438,0.7400000095367432 -20.540000915527344,0.1599999964237213 C-20.190000534057617,-0.41999998688697815 -19.719999313354492,-0.9200000166893005 -19.170000076293945,-1.3200000524520874 C-19.010000228881836,-1.440000057220459 -18.84000015258789,-1.5499999523162842 -18.68000030517578,-1.649999976158142z"></path>
      </g>
    </g>
    <g transform="matrix(1,0,0,1,293.0576477050781,196.35934448242188)" opacity="1" style="display: block;">
      <g opacity="1" transform="matrix(1,0,0,1,9.699999809265137,9.699999809265137)">
        <path fill="rgb(40,74,117)" fill-opacity="1" d=" M0,9.449999809265137 C5.21999979019165,9.449999809265137 9.449999809265137,5.21999979019165 9.449999809265137,0 C9.449999809265137,-5.21999979019165 5.21999979019165,-9.449999809265137 0,-9.449999809265137 C-5.21999979019165,-9.449999809265137 -9.449999809265137,-5.21999979019165 -9.449999809265137,0 C-9.449999809265137,5.21999979019165 -5.21999979019165,9.449999809265137 0,9.449999809265137z"></path>
      </g>
    </g>
    <g transform="matrix(1,0,0,1,182.53829956054688,192.43934631347656)" opacity="1" style="display: block;">
      <g opacity="1" transform="matrix(1,0,0,1,21.65999984741211,8.380000114440918)">
        <path fill="rgb(27,50,80)" fill-opacity="1" d=" M13.020000457763672,6.960000038146973 C10.710000038146973,5.260000228881836 8.279999732971191,3.7200000286102295 5.760000228881836,2.3399999141693115 C3.4800000190734863,1.1100000143051147 0.9800000190734863,0.3400000035762787 -1.600000023841858,0.07000000029802322 C-4.400000095367432,-0.15000000596046448 -7.210000038146973,-0.05000000074505806 -9.989999771118164,0.3499999940395355 C-13.180000305175781,1.090000033378601 -16.43000030517578,1.559999942779541 -19.700000762939453,1.75 C-20.079999923706055,1.7400000095367432 -20.450000762939453,1.6100000143051147 -20.75,1.3600000143051147 C-21.049999237060547,1.1100000143051147 -21.25,0.7699999809265137 -21.329999923706055,0.38999998569488525 C-21.40999984741211,0.009999999776482582 -21.350000381469727,-0.3799999952316284 -21.170000076293945,-0.7200000286102295 C-20.989999771118164,-1.059999942779541 -20.700000762939453,-1.340000033378601 -20.350000381469727,-1.4900000095367432 C-20.350000381469727,-1.4900000095367432 -20,-1.6399999856948853 -20,-1.6399999856948853 C-17.700000762939453,-2.6500000953674316 -14.880000114440918,-4.5 -11.729999542236328,-5.760000228881836 C-8.449999809265137,-7.010000228881836 -5.010000228881836,-7.739999771118164 -1.5099999904632568,-7.929999828338623 C2.2100000381469727,-8.119999885559082 5.929999828338623,-7.539999961853027 9.40999984741211,-6.210000038146973 C12.600000381469727,-4.980000019073486 15.680000305175781,-3.4700000286102295 18.610000610351562,-1.7100000381469727 C19.799999237060547,-1.0299999713897705 20.68000030517578,0.09000000357627869 21.040000915527344,1.409999966621399 C21.40999984741211,2.7300000190734863 21.239999771118164,4.139999866485596 20.559999465942383,5.329999923706055 C19.8799991607666,6.519999980926514 18.760000228881836,7.400000095367432 17.440000534057617,7.760000228881836 C16.1200008392334,8.130000114440918 14.699999809265137,7.949999809265137 13.510000228881836,7.269999980926514 C13.34000015258789,7.179999828338623 13.180000305175781,7.070000171661377 13.020000457763672,6.960000038146973z"></path>
      </g>
    </g>
    <g transform="matrix(1,0,0,1,196.22763061523438,196.35934448242188)" opacity="1" style="display: block;">
      <g opacity="1" transform="matrix(1,0,0,1,9.699999809265137,9.699999809265137)">
        <path fill="rgb(40,74,117)" fill-opacity="1" d=" M0,9.449999809265137 C5.21999979019165,9.449999809265137 9.449999809265137,5.21999979019165 9.449999809265137,0 C9.449999809265137,-5.21999979019165 5.21999979019165,-9.449999809265137 0,-9.449999809265137 C-5.21999979019165,-9.449999809265137 -9.449999809265137,-5.21999979019165 -9.449999809265137,0 C-9.449999809265137,5.21999979019165 -5.21999979019165,9.449999809265137 0,9.449999809265137z"></path>
      </g>
    </g>
    <g transform="matrix(1,0,0,1,172.07894897460938,173.17996215820312)" opacity="1" style="display: block;">
      <g opacity="1" transform="matrix(1,0,0,1,81.37999725341797,33.810001373291016)">
        <path fill="rgb(255,255,255)" fill-opacity="1" d=" M-10.359999656677246,6.489999771118164 C-11.5600004196167,6.480000019073486 -12.720000267028809,6.059999942779541 -13.640000343322754,5.289999961853027 C-14.5600004196167,4.519999980926514 -15.180000305175781,3.440000057220459 -15.399999618530273,2.259999990463257 C-15.609999656677246,1.0800000429153442 -15.40999984741211,-0.14000000059604645 -14.819999694824219,-1.190000057220459 C-14.229999542236328,-2.240000009536743 -13.300000190734863,-3.049999952316284 -12.180000305175781,-3.4800000190734863 C-4.309999942779541,-6.599999904632568 4.46999979019165,-6.590000152587891 12.34000015258789,-3.450000047683716 C13.579999923706055,-2.9200000762939453 14.5600004196167,-1.940000057220459 15.079999923706055,-0.699999988079071 C15.600000381469727,0.5400000214576721 15.609999656677246,1.940000057220459 15.119999885559082,3.190000057220459 C14.630000114440918,4.440000057220459 13.670000076293945,5.449999809265137 12.4399995803833,6 C11.210000038146973,6.550000190734863 9.8100004196167,6.599999904632568 8.550000190734863,6.139999866485596 C3.059999942779541,3.940000057220459 -3.059999942779541,3.950000047683716 -8.539999961853027,6.170000076293945 C-9.119999885559082,6.389999866485596 -9.739999771118164,6.5 -10.359999656677246,6.489999771118164z"></path>
      </g>
      <g opacity="1" transform="matrix(1,0,0,1,38.220001220703125,38.220001220703125)">
        <path fill="rgb(255,255,255)" fill-opacity="1" d=" M0.36000001430511475,37.970001220703125 C-7.079999923706055,37.970001220703125 -14.350000381469727,35.7599983215332 -20.530000686645508,31.6299991607666 C-26.709999084472656,27.5 -31.530000686645508,21.6200008392334 -34.380001068115234,14.75 C-37.220001220703125,7.880000114440918 -37.959999084472656,0.3199999928474426 -36.5099983215332,-6.96999979019165 C-35.060001373291016,-14.260000228881836 -31.479999542236328,-20.959999084472656 -26.219999313354492,-26.219999313354492 C-20.959999084472656,-31.479999542236328 -14.260000228881836,-35.06999969482422 -6.96999979019165,-36.52000045776367 C0.3199999928474426,-37.970001220703125 7.889999866485596,-37.220001220703125 14.760000228881836,-34.369998931884766 C21.6299991607666,-31.520000457763672 27.5,-26.700000762939453 31.6299991607666,-20.520000457763672 C35.7599983215332,-14.34000015258789 37.970001220703125,-7.070000171661377 37.970001220703125,0.3700000047683716 C37.959999084472656,10.34000015258789 33.9900016784668,19.889999389648438 26.940000534057617,26.940000534057617 C19.889999389648438,33.9900016784668 10.329999923706055,37.959999084472656 0.36000001430511475,37.970001220703125z M0.36000001430511475,-26.920000076293945 C-5.039999961853027,-26.920000076293945 -10.3100004196167,-25.31999969482422 -14.800000190734863,-22.31999969482422 C-19.290000915527344,-19.31999969482422 -22.780000686645508,-15.0600004196167 -24.850000381469727,-10.069999694824219 C-26.920000076293945,-5.079999923706055 -27.450000762939453,0.4000000059604645 -26.399999618530273,5.690000057220459 C-25.350000381469727,10.979999542236328 -22.75,15.84000015258789 -18.93000030517578,19.65999984741211 C-15.109999656677246,23.479999542236328 -10.25,26.079999923706055 -4.960000038146973,27.1299991607666 C0.33000001311302185,28.18000030517578 5.820000171661377,27.649999618530273 10.8100004196167,25.579999923706055 C15.800000190734863,23.510000228881836 20.059999465942383,20.020000457763672 23.059999465942383,15.529999732971191 C26.059999465942383,11.039999961853027 27.649999618530273,5.769999980926514 27.649999618530273,0.3700000047683716 C27.639999389648438,-6.860000133514404 24.770000457763672,-13.8100004196167 19.649999618530273,-18.920000076293945 C14.529999732971191,-24.030000686645508 7.590000152587891,-26.899999618530273 0.36000001430511475,-26.90999984741211 C0.36000001430511475,-26.90999984741211 0.36000001430511475,-26.920000076293945 0.36000001430511475,-26.920000076293945z"></path>
      </g>
      <g opacity="1" transform="matrix(1,0,0,1,123.9000015258789,38.220001220703125)">
        <path fill="rgb(255,255,255)" fill-opacity="1" d=" M0.3700000047683716,37.970001220703125 C-7.070000171661377,37.970001220703125 -14.34000015258789,35.7599983215332 -20.520000457763672,31.6299991607666 C-26.700000762939453,27.5 -31.520000457763672,21.6200008392334 -34.369998931884766,14.75 C-37.220001220703125,7.880000114440918 -37.959999084472656,0.3199999928474426 -36.5099983215332,-6.96999979019165 C-35.060001373291016,-14.260000228881836 -31.479999542236328,-20.959999084472656 -26.219999313354492,-26.219999313354492 C-20.959999084472656,-31.479999542236328 -14.260000228881836,-35.060001373291016 -6.96999979019165,-36.5099983215332 C0.3199999928474426,-37.959999084472656 7.889999866485596,-37.220001220703125 14.760000228881836,-34.369998931884766 C21.6299991607666,-31.520000457763672 27.5,-26.700000762939453 31.6299991607666,-20.520000457763672 C35.7599983215332,-14.34000015258789 37.970001220703125,-7.070000171661377 37.970001220703125,0.3700000047683716 C37.959999084472656,10.34000015258789 33.9900016784668,19.889999389648438 26.940000534057617,26.940000534057617 C19.889999389648438,33.9900016784668 10.34000015258789,37.959999084472656 0.3700000047683716,37.970001220703125z M0.3700000047683716,-26.920000076293945 C-5.03000020980835,-26.920000076293945 -10.300000190734863,-25.31999969482422 -14.789999961853027,-22.31999969482422 C-19.280000686645508,-19.31999969482422 -22.780000686645508,-15.069999694824219 -24.850000381469727,-10.079999923706055 C-26.920000076293945,-5.090000152587891 -27.450000762939453,0.4000000059604645 -26.399999618530273,5.690000057220459 C-25.350000381469727,10.979999542236328 -22.739999771118164,15.84000015258789 -18.93000030517578,19.65999984741211 C-15.109999656677246,23.479999542236328 -10.25,26.079999923706055 -4.960000038146973,27.1299991607666 C0.33000001311302185,28.18000030517578 5.809999942779541,27.649999618530273 10.800000190734863,25.579999923706055 C15.789999961853027,23.520000457763672 20.049999237060547,20.020000457763672 23.049999237060547,15.529999732971191 C26.049999237060547,11.039999961853027 27.649999618530273,5.769999980926514 27.649999618530273,0.3700000047683716 C27.639999389648438,-6.860000133514404 24.770000457763672,-13.789999961853027 19.649999618530273,-18.90999984741211 C14.539999961853027,-24.020000457763672 7.599999904632568,-26.899999618530273 0.3700000047683716,-26.90999984741211 C0.3700000047683716,-26.90999984741211 0.3700000047683716,-26.920000076293945 0.3700000047683716,-26.920000076293945z"></path>
      </g>
    </g>
    <g transform="matrix(1,0,0,1,174.32894897460938,153.40579223632812)" opacity="1" style="display: block;">
      <g opacity="1" transform="matrix(1,0,0,1,31.719999313354492,12.1899995803833)">
        <path fill="rgb(40,74,117)" fill-opacity="1" d=" M26.18000030517578,11.869999885559082 C25.510000228881836,11.869999885559082 24.860000610351562,11.739999771118164 24.239999771118164,11.489999771118164 C14.0600004196167,7.329999923706055 -14.880000114440918,1.7100000381469727 -22.389999389648438,10.140000343322754 C-23.299999237060547,11.15999984741211 -24.579999923706055,11.779999732971191 -25.950000762939453,11.859999656677246 C-27.31999969482422,11.9399995803833 -28.65999984741211,11.470000267028809 -29.68000030517578,10.5600004196167 C-30.700000762939453,9.649999618530273 -31.31999969482422,8.369999885559082 -31.399999618530273,7 C-31.479999542236328,5.630000114440918 -31,4.289999961853027 -30.09000015258789,3.2699999809265137 C-16.530000686645508,-11.9399995803833 21.260000228881836,-0.8799999952316284 28.1299991607666,1.9299999475479126 C29.239999771118164,2.380000114440918 30.149999618530273,3.200000047683716 30.719999313354492,4.25 C31.290000915527344,5.300000190734863 31.469999313354492,6.519999980926514 31.239999771118164,7.690000057220459 C31.010000228881836,8.859999656677246 30.3799991607666,9.920000076293945 29.459999084472656,10.680000305175781 C28.540000915527344,11.4399995803833 27.3799991607666,11.859999656677246 26.18000030517578,11.859999656677246 C26.18000030517578,11.859999656677246 26.18000030517578,11.869999885559082 26.18000030517578,11.869999885559082z"></path>
      </g>
      <g opacity="1" transform="matrix(1,0,0,1,126.63999938964844,12.199999809265137)">
        <path fill="rgb(40,74,117)" fill-opacity="1" d=" M-26.18000030517578,11.859999656677246 C-27.3700008392334,11.859999656677246 -28.540000915527344,11.449999809265137 -29.459999084472656,10.6899995803833 C-30.3799991607666,9.930000305175781 -31.010000228881836,8.869999885559082 -31.239999771118164,7.699999809265137 C-31.469999313354492,6.53000020980835 -31.290000915527344,5.300000190734863 -30.719999313354492,4.25 C-30.149999618530273,3.200000047683716 -29.239999771118164,2.380000114440918 -28.1299991607666,1.9299999475479126 C-21.25,-0.8799999952316284 16.530000686645508,-11.9399995803833 30.09000015258789,3.2699999809265137 C31,4.289999961853027 31.479999542236328,5.630000114440918 31.399999618530273,7 C31.31999969482422,8.369999885559082 30.700000762939453,9.649999618530273 29.68000030517578,10.5600004196167 C28.65999984741211,11.470000267028809 27.31999969482422,11.949999809265137 25.950000762939453,11.869999885559082 C24.579999923706055,11.789999961853027 23.299999237060547,11.170000076293945 22.389999389648438,10.149999618530273 C14.880000114440918,1.7200000286102295 -14.039999961853027,7.329999923706055 -24.229999542236328,11.489999771118164 C-24.850000381469727,11.739999771118164 -25.510000228881836,11.859999656677246 -26.18000030517578,11.859999656677246z"></path>
      </g>
    </g>
    <g transform="matrix(1.009534478187561,0,0,1,231.0040283203125,258.8800048828125)" opacity="1" style="display: block;">
      <g opacity="1" transform="matrix(1,0,0,1,22.540000915527344,12.100000381469727)">
        <path fill="rgb(255,136,108)" fill-opacity="1" d=" M-18.020000457763672,-11.329999923706055 C-18.6299991607666,-11.369999885559082 -19.239999771118164,-11.279999732971191 -19.799999237060547,-11.050000190734863 C-20.360000610351562,-10.819999694824219 -20.8700008392334,-10.460000038146973 -21.270000457763672,-10 C-21.670000076293945,-9.539999961853027 -21.959999084472656,-9 -22.1200008392334,-8.40999984741211 C-22.280000686645508,-7.820000171661377 -22.290000915527344,-7.199999809265137 -22.170000076293945,-6.599999904632568 C-20.709999084472656,0.5299999713897705 -15.890000343322754,11.84000015258789 0,11.84000015258789 C15.890000343322754,11.84000015258789 20.709999084472656,0.5299999713897705 22.170000076293945,-6.599999904632568 C22.290000915527344,-7.199999809265137 22.280000686645508,-7.820000171661377 22.1200008392334,-8.40999984741211 C21.959999084472656,-9 21.670000076293945,-9.539999961853027 21.270000457763672,-10 C20.8700008392334,-10.460000038146973 20.360000610351562,-10.819999694824219 19.799999237060547,-11.050000190734863 C19.239999771118164,-11.279999732971191 18.6299991607666,-11.369999885559082 18.020000457763672,-11.329999923706055 C12.770000457763672,-11.020000457763672 5.360000133514404,-11.84000015258789 0,-11.84000015258789 C-5.360000133514404,-11.84000015258789 -12.770000457763672,-11.010000228881836 -18.020000457763672,-11.329999923706055z"></path>
      </g>
    </g>
    <g transform="matrix(1.045698881149292,0.01879478618502617,-0.01879478618502617,1.045698881149292,297.72149658203125,310.3306884765625)" opacity="1" style="display: block;">
      <g opacity="1" transform="matrix(1,0,0,1,85.58000183105469,85.58000183105469)">
        <path fill="rgb(255,255,255)" fill-opacity="1" d=" M85.33000183105469,0 C85.33000183105469,47.130001068115234 47.130001068115234,85.33000183105469 0,85.33000183105469 C-47.130001068115234,85.33000183105469 -85.33000183105469,47.130001068115234 -85.33000183105469,0 C-85.33000183105469,-47.130001068115234 -47.130001068115234,-85.33000183105469 0,-85.33000183105469 C47.130001068115234,-85.33000183105469 85.33000183105469,-47.130001068115234 85.33000183105469,0z"></path>
        <path fill="rgb(255,255,255)" fill-opacity="1" d=" M85.33000183105469,0 C85.33000183105469,47.130001068115234 47.130001068115234,85.33000183105469 0,85.33000183105469 C-47.130001068115234,85.33000183105469 -85.33000183105469,47.130001068115234 -85.33000183105469,0 C-85.33000183105469,-47.130001068115234 -47.130001068115234,-85.33000183105469 0,-85.33000183105469 C47.130001068115234,-85.33000183105469 85.33000183105469,-47.130001068115234 85.33000183105469,0z"></path>
      </g>
      <g opacity="1" transform="matrix(1,0,0,1,85.58000183105469,85.58000183105469)">
        <path fill="rgb(228,232,236)" fill-opacity="1" d=" M0,74.66999816894531 C41.2400016784668,74.66999816894531 74.66999816894531,41.2400016784668 74.66999816894531,0 C74.66999816894531,-41.2400016784668 41.2400016784668,-74.66999816894531 0,-74.66999816894531 C-41.2400016784668,-74.66999816894531 -74.66999816894531,-41.2400016784668 -74.66999816894531,0 C-74.66999816894531,41.2400016784668 -41.2400016784668,74.66999816894531 0,74.66999816894531z M0,85.33000183105469 C47.130001068115234,85.33000183105469 85.33000183105469,47.130001068115234 85.33000183105469,0 C85.33000183105469,-47.130001068115234 47.130001068115234,-85.33000183105469 0,-85.33000183105469 C-47.130001068115234,-85.33000183105469 -85.33000183105469,-47.130001068115234 -85.33000183105469,0 C-85.33000183105469,47.130001068115234 -47.130001068115234,85.33000183105469 0,85.33000183105469z"></path>
      </g>
      <g opacity="1" transform="matrix(1,0,0,1,85.58000183105469,85.58000183105469)">
        <path fill="rgb(255,255,255)" fill-opacity="1" d=" M85.33000183105469,0 C85.33000183105469,47.130001068115234 47.130001068115234,85.33000183105469 0,85.33000183105469 C-47.130001068115234,85.33000183105469 -85.33000183105469,47.130001068115234 -85.33000183105469,0 C-85.33000183105469,-47.130001068115234 -47.130001068115234,-85.33000183105469 0,-85.33000183105469 C47.130001068115234,-85.33000183105469 85.33000183105469,-47.130001068115234 85.33000183105469,0z"></path>
      </g>
      <g opacity="1" transform="matrix(1,0,0,1,85.58000183105469,85.58000183105469)">
        <path fill="rgb(228,232,236)" fill-opacity="1" d=" M0,74.66999816894531 C41.2400016784668,74.66999816894531 74.66999816894531,41.2400016784668 74.66999816894531,0 C74.66999816894531,-41.2400016784668 41.2400016784668,-74.66999816894531 0,-74.66999816894531 C-41.2400016784668,-74.66999816894531 -74.66999816894531,-41.2400016784668 -74.66999816894531,0 C-74.66999816894531,41.2400016784668 -41.2400016784668,74.66999816894531 0,74.66999816894531z M0,85.33000183105469 C47.130001068115234,85.33000183105469 85.33000183105469,47.130001068115234 85.33000183105469,0 C85.33000183105469,-47.130001068115234 47.130001068115234,-85.33000183105469 0,-85.33000183105469 C-47.130001068115234,-85.33000183105469 -85.33000183105469,-47.130001068115234 -85.33000183105469,0 C-85.33000183105469,47.130001068115234 -47.130001068115234,85.33000183105469 0,85.33000183105469z"></path>
      </g>
      <g opacity="1" transform="matrix(1,0,0,1,85.0199966430664,85.02999877929688)">
        <path fill="rgb(255,111,77)" fill-opacity="1" d=" M5.860000133514404,-46.380001068115234 C5.860000133514404,-46.380001068115234 -5.880000114440918,-46.380001068115234 -5.880000114440918,-46.380001068115234 C-10.380000114440918,-46.369998931884766 -14.6899995803833,-44.58000183105469 -17.8700008392334,-41.400001525878906 C-21.049999237060547,-38.220001220703125 -22.829999923706055,-33.90999984741211 -22.84000015258789,-29.40999984741211 C-22.84000015258789,-29.40999984741211 -22.84000015258789,-26.489999771118164 -22.84000015258789,-26.489999771118164 C-22.84000015258789,-25.520000457763672 -23.229999542236328,-24.59000015258789 -23.920000076293945,-23.90999984741211 C-24.600000381469727,-23.219999313354492 -25.530000686645508,-22.84000015258789 -26.5,-22.84000015258789 C-26.5,-22.84000015258789 -29.40999984741211,-22.84000015258789 -29.40999984741211,-22.84000015258789 C-33.90999984741211,-22.829999923706055 -38.220001220703125,-21.040000915527344 -41.400001525878906,-17.860000610351562 C-44.58000183105469,-14.680000305175781 -46.369998931884766,-10.369999885559082 -46.380001068115234,-5.869999885559082 C-46.380001068115234,-5.869999885559082 -46.380001068115234,5.880000114440918 -46.380001068115234,5.880000114440918 C-46.369998931884766,10.380000114440918 -44.58000183105469,14.680000305175781 -41.400001525878906,17.860000610351562 C-38.220001220703125,21.040000915527344 -33.90999984741211,22.829999923706055 -29.40999984741211,22.84000015258789 C-29.40999984741211,22.84000015258789 -26.489999771118164,22.84000015258789 -26.489999771118164,22.84000015258789 C-25.520000457763672,22.84000015258789 -24.59000015258789,23.229999542236328 -23.90999984741211,23.90999984741211 C-23.219999313354492,24.600000381469727 -22.84000015258789,25.530000686645508 -22.84000015258789,26.5 C-22.84000015258789,26.5 -22.84000015258789,29.40999984741211 -22.84000015258789,29.40999984741211 C-22.829999923706055,33.90999984741211 -21.040000915527344,38.220001220703125 -17.860000610351562,41.400001525878906 C-14.680000305175781,44.58000183105469 -10.369999885559082,46.380001068115234 -5.869999885559082,46.380001068115234 C-5.869999885559082,46.380001068115234 5.860000133514404,46.380001068115234 5.860000133514404,46.380001068115234 C10.359999656677246,46.369998931884766 14.670000076293945,44.58000183105469 17.850000381469727,41.400001525878906 C21.030000686645508,38.220001220703125 22.81999969482422,33.90999984741211 22.81999969482422,29.40999984741211 C22.81999969482422,29.40999984741211 22.81999969482422,26.479999542236328 22.81999969482422,26.479999542236328 C22.81999969482422,25.510000228881836 23.200000762939453,24.579999923706055 23.889999389648438,23.889999389648438 C24.579999923706055,23.200000762939453 25.510000228881836,22.81999969482422 26.479999542236328,22.81999969482422 C26.479999542236328,22.81999969482422 29.40999984741211,22.81999969482422 29.40999984741211,22.81999969482422 C33.90999984741211,22.81999969482422 38.220001220703125,21.030000686645508 41.400001525878906,17.850000381469727 C44.58000183105469,14.670000076293945 46.380001068115234,10.359999656677246 46.380001068115234,5.860000133514404 C46.380001068115234,5.860000133514404 46.380001068115234,-5.860000133514404 46.380001068115234,-5.860000133514404 C46.380001068115234,-10.359999656677246 44.58000183105469,-14.670000076293945 41.400001525878906,-17.850000381469727 C38.220001220703125,-21.030000686645508 33.90999984741211,-22.809999465942383 29.40999984741211,-22.81999969482422 C29.40999984741211,-22.81999969482422 26.479999542236328,-22.81999969482422 26.479999542236328,-22.81999969482422 C25.510000228881836,-22.81999969482422 24.579999923706055,-23.200000762939453 23.889999389648438,-23.889999389648438 C23.200000762939453,-24.579999923706055 22.81999969482422,-25.510000228881836 22.81999969482422,-26.479999542236328 C22.81999969482422,-26.479999542236328 22.81999969482422,-29.40999984741211 22.81999969482422,-29.40999984741211 C22.81999969482422,-33.90999984741211 21.030000686645508,-38.220001220703125 17.850000381469727,-41.400001525878906 C14.670000076293945,-44.58000183105469 10.359999656677246,-46.369998931884766 5.860000133514404,-46.380001068115234z"></path>
      </g>
    </g>
  </g>
</svg>