<svg xmlns="http://www.w3.org/2000/svg" width="32" height="32" fill="none">
  <path fill="#2D87F3" d="m29.32 6.926-1.856 19.189a2.67 2.67 0 0 1-2.657 2.412H7.192a2.67 2.67 0 0 1-2.657-2.412L2.68 6.926A2.67 2.67 0 0 1 5.336 4h21.327a2.67 2.67 0 0 1 2.657 2.926" />
  <path fill="#fff" d="m25.603 9.664-1.663 4.364a1.26 1.26 0 0 1-1.512.774 22 22 0 0 0-6.425-.887c-.435 0-.871.021-1.302.048q-2.325.17-4.649.84a1.26 1.26 0 0 1-1.512-.775L6.883 9.669A1.266 1.266 0 0 1 7.7 8.006a24 24 0 0 1 1.77-.495c.35-.091.7-.177 1.055-.242q.87-.195 1.743-.317.54-.091 1.082-.14a24 24 0 0 1 2.13-.15q.541-.025 1.077-.017c1.8.022 3.592.206 5.445.608.35.07.705.156 1.055.242.575.15 1.157.318 1.732.5.7.227 1.076.98.813 1.669" />
  <path fill="#FF6F4D" d="m18.075 10.616-2.072 3.299c-.436 0-.872.022-1.302.048l2.459-3.917a.54.54 0 0 1 .915.57" />
  <path fill="#2B62CD" d="M16.558 6.645v1.684a.54.54 0 0 1-.538.538.54.54 0 0 1-.539-.538V6.661q.543-.024 1.077-.016M10.639 9.276a.536.536 0 0 1-.683-.339L9.47 7.511c.35-.091.7-.177 1.055-.242l.446 1.324a.54.54 0 0 1-.333.683M13.404 8.793a.6.6 0 0 1-.161.021.53.53 0 0 1-.511-.377l-.463-1.485q.54-.09 1.082-.14l.409 1.308a.54.54 0 0 1-.356.673M23.057 7.496l-.527 1.496a.54.54 0 0 1-.689.328.544.544 0 0 1-.328-.689l.49-1.377c.35.07.704.156 1.054.242M20.297 6.941l-.549 1.56a.539.539 0 1 1-1.017-.36l.474-1.34c.366.038.726.086 1.092.14" />
</svg>