<svg width="25" height="24" viewBox="0 0 25 24" fill="none" xmlns="http://www.w3.org/2000/svg">
  <path d="M0.5 12C0.5 5.37258 5.87258 0 12.5 0C19.1274 0 24.5 5.37258 24.5 12C24.5 18.6274 19.1274 24 12.5 24C5.87258 24 0.5 18.6274 0.5 12Z" fill="#E4E8EC"></path>
  <path d="M19.25 16.0833C19.25 16.3928 19.1207 16.6895 18.8905 16.9083C18.6604 17.1271 18.3482 17.25 18.0227 17.25H6.97727C6.65178 17.25 6.33962 17.1271 6.10946 16.9083C5.8793 16.6895 5.75 16.3928 5.75 16.0833V9.66667C5.75 9.35725 5.8793 9.0605 6.10946 8.84171C6.33962 8.62292 6.65178 8.5 6.97727 8.5H9.43182L10.6591 6.75H14.3409L15.5682 8.5H18.0227C18.3482 8.5 18.6604 8.62292 18.8905 8.84171C19.1207 9.0605 19.25 9.35725 19.25 9.66667V16.0833Z" stroke="#262626" stroke-linecap="round" stroke-linejoin="round"></path>
  <path d="M12.5 15C13.7426 15 14.75 13.9926 14.75 12.75C14.75 11.5074 13.7426 10.5 12.5 10.5C11.2574 10.5 10.25 11.5074 10.25 12.75C10.25 13.9926 11.2574 15 12.5 15Z" stroke="#262626" stroke-linecap="round" stroke-linejoin="round"></path>
</svg>