<svg fill="none" xmlns="http://www.w3.org/2000/svg" viewBox="0 0 88 59">
  <path d="M73.988 48.95c-.68.12-4.193 2.128-4.762 2.42v-.001c-.007.004-.017.008-.024.014l-.067.034c-3.394 1.858-4.954 1.51-6.289.88C59.242 50.6 54.988 36.98 49.15 38.394c-2.475.601-2.351 7.724-3.903 9.384l.003-.008c-.01.014-.023.025-.033.04-.223.24-.44.484-.645.736-3.036 3.04-6.061-.922-6.93-1.822-.063-.07-.13-.635-.194-.704-.035-.04-.053-.064-.053-.064v.004c-3.804-4.113-12.527-8.438-18.36-7.415-10.026 1.761-11.39 19.36-11.39 19.36h74.901c-1.17-4.125-2.958-9.937-8.557-8.955z" fill="#BCDEFF"></path>
  <path d="M21.158 55.422c0 1.18.98 2.135 2.19 2.135h43.378c1.207 0 2.19-.955 2.19-2.135V17.25H21.157v38.172z" fill="#100C25"></path>
  <path d="M66.727 5.161H23.349c-1.21 0-2.19.955-2.19 2.135v9.972h47.755V7.296c0-1.18-.98-2.135-2.187-2.135z" fill="#100C25"></path>
  <path d="M17.722 55.422c0 1.18.98 2.135 2.19 2.135H63.29c1.21 0 2.189-.955 2.189-2.135V17.25H17.722v38.172z" fill="#fff"></path>
  <path d="M63.29 5.146H19.91c-1.21 0-2.189.955-2.189 2.134v9.973h47.755V7.28c.002-1.18-.978-2.134-2.187-2.134z" fill="#2D87F3"></path>
  <path d="M30.968 13.946c1.387 0 2.512-1.096 2.512-2.45 0-1.353-1.124-2.45-2.512-2.45s-2.513 1.098-2.513 2.45c0 1.354 1.125 2.45 2.513 2.45z" fill="#100C25"></path>
  <path d="M30.454 10.18c-.723 0-1.307-.57-1.307-1.275V3.578c0-.615.427-1.183 1.046-1.299.834-.157 1.568.464 1.568 1.25v1.616h2.213V3.65c0-1.825-1.41-3.422-3.278-3.543-2.05-.133-3.76 1.453-3.76 3.424v5.266c0 1.79 1.358 3.362 3.187 3.527.195.017.387.019.576.007 1.393-.093 1.278-2.147-.119-2.147h-.126v-.004z" fill="#fff"></path>
  <path d="M51.018 13.941c1.388 0 2.513-1.096 2.513-2.45 0-1.352-1.125-2.45-2.513-2.45-1.387 0-2.512 1.098-2.512 2.45 0 1.354 1.125 2.45 2.512 2.45z" fill="#100C25"></path>
  <path d="M50.485 10.18c-.723 0-1.307-.57-1.307-1.275V3.578c0-.615.427-1.183 1.046-1.299.834-.157 1.568.464 1.568 1.25v1.616h2.213V3.65c0-1.825-1.41-3.422-3.279-3.543-2.049-.133-3.759 1.453-3.759 3.424v5.266c0 1.79 1.358 3.361 3.187 3.527.195.017.387.019.576.007 1.393-.093 1.278-2.147-.118-2.147h-.127v-.004z" fill="#fff"></path>
  <path d="M29.296 23.073h-3.143a2 2 0 00-2 2v2.964a2 2 0 002 2h3.143a2 2 0 002-2v-2.964a2 2 0 00-2-2zm0 10.255h-3.142a2 2 0 00-2 2v2.964a2 2 0 002 2h3.142a2 2 0 002-2v-2.964a2 2 0 00-2-2zm0 10.25h-3.142a2 2 0 00-2 2v2.964a2 2 0 002 2h3.142a2 2 0 002-2v-2.964a2 2 0 00-2-2z" fill="#BCDEFF"></path>
  <path d="M41.42 23.073h-3.143a2 2 0 00-2 2v2.964a2 2 0 002 2h3.143a2 2 0 002-2v-2.964a2 2 0 00-2-2z" fill="#2D87F3"></path>
  <path d="M41.421 33.328h-3.143a2 2 0 00-2 2v2.964a2 2 0 002 2h3.143a2 2 0 002-2v-2.964a2 2 0 00-2-2zm0 10.25h-3.143a2 2 0 00-2 2v2.964a2 2 0 002 2h3.143a2 2 0 002-2v-2.964a2 2 0 00-2-2z" fill="#BCDEFF"></path>
  <path d="M53.523 23.073H50.38a2 2 0 00-2 2v2.964a2 2 0 002 2h3.143a2 2 0 002-2v-2.964a2 2 0 00-2-2zm0 10.255h-3.142a2 2 0 00-2 2v2.964a2 2 0 002 2h3.142a2 2 0 002-2v-2.964a2 2 0 00-2-2z" fill="#2D87F3"></path>
  <path d="M53.523 43.578h-3.142a2 2 0 00-2 2v2.964a2 2 0 002 2h3.142a2 2 0 002-2v-2.964a2 2 0 00-2-2z" fill="#BCDEFF"></path>
  <path d="M86.242 57.906H1.318" stroke="#100C25" stroke-width="1.55" stroke-miterlimit="10" stroke-linecap="round" stroke-linejoin="round"></path>
</svg>