<svg width="16" height="16" viewBox="0 0 16 16" fill="none" xmlns="http://www.w3.org/2000/svg">
  <path d="M8.883 14.402c-1.089 0-2.014-.384-2.775-1.15-.761-.767-1.142-1.695-1.142-2.784v-.5a3.827 3.827 0 01-2.391-1.241C1.925 8.02 1.6 7.179 1.6 6.202v-3.2a.58.58 0 01.172-.428.58.58 0 01.428-.172h1.4v-.2c0-.17.057-.313.171-.428a.575.575 0 01.425-.172c.17 0 .312.057.429.172a.576.576 0 01.175.428v1.6c0 .17-.058.312-.172.427a.575.575 0 01-.425.173.587.587 0 01-.428-.173.576.576 0 01-.175-.427v-.2h-.8v2.607c0 .717.252 1.329.758 1.834.506.506 1.12.759 1.842.759s1.336-.253 1.841-.759A2.498 2.498 0 008 6.21V3.602h-.8v.2c0 .17-.058.312-.172.427a.575.575 0 01-.425.173.587.587 0 01-.428-.173A.576.576 0 016 3.802v-1.6c0-.17.057-.313.171-.428a.575.575 0 01.425-.172c.17 0 .312.057.429.172a.576.576 0 01.175.428v.2h1.4a.58.58 0 01.427.172.58.58 0 01.173.428v3.2c0 .937-.286 1.752-.859 2.444a3.617 3.617 0 01-2.175 1.289v.55c0 .76.264 1.405.793 1.936.528.532 1.17.797 1.924.797v1.184zm2.533-2.5l2.12-2.121a.583.583 0 01.847.004.582.582 0 01.003.847l-2.556 2.556a.581.581 0 01-.847-.003L9.85 12.052a.574.574 0 01-.184-.425c0-.165.061-.306.184-.425a.584.584 0 01.85 0l.716.7z" fill="#2D87F3"></path>
</svg>