<svg width="24" height="24" viewBox="0 0 20 20" fill="none" xmlns="http://www.w3.org/2000/svg"><path d="M2.5 6.5a3.2 3.2 0 0 1 3.2-3.2h7.9a3.2 3.2 0 0 1 3.19 3.2v4.72a3.2 3.2 0 0 1-3.2 3.2H5.7a3.2 3.2 0 0 1-3.19-3.2V6.49Z" fill="#E3F2FF"></path><path d="M2.5 5.68A2.38 2.38 0 0 1 4.88 3.3h9.52a2.38 2.38 0 0 1 2.39 2.38z" fill="#2D87F3"></path><path d="M13.6 2.5h-.03c-.36 0-.65.3-.65.65V4.2c0 .36.3.65.65.65h.03c.36 0 .65-.3.65-.65V3.15a.65.65 0 0 0-.65-.65M5.27 4.86h.03c.36 0 .65-.3.65-.65V3.15a.65.65 0 0 0-.65-.65h-.03c-.36 0-.65.3-.65.65V4.2c0 .36.3.65.65.65Z" fill="#2743AD"></path><path d="M5.56 8.17h-.5a.4.4 0 0 0-.4.4v.59c0 .22.18.4.4.4h.5a.4.4 0 0 0 .4-.4v-.58a.4.4 0 0 0-.4-.41m2.7 0h-.5a.4.4 0 0 0-.4.4v.59c0 .22.18.4.4.4h.5a.4.4 0 0 0 .4-.4v-.58a.4.4 0 0 0-.4-.41m2.7 0h-.5a.4.4 0 0 0-.4.4v.59c0 .22.18.4.4.4h.5a.4.4 0 0 0 .4-.4v-.58a.4.4 0 0 0-.4-.41m2.87 0h-.49a.4.4 0 0 0-.4.4v.59c0 .22.18.4.4.4h.49a.4.4 0 0 0 .4-.4v-.58a.4.4 0 0 0-.4-.41m-8.3 2.52h-.5a.4.4 0 0 0-.4.4v.58c0 .23.18.4.4.4h.5a.4.4 0 0 0 .4-.4v-.58a.4.4 0 0 0-.4-.4m2.7 0h-.5a.4.4 0 0 0-.4.4v.58c0 .23.18.4.4.4h.5a.4.4 0 0 0 .4-.4v-.58a.4.4 0 0 0-.4-.4m2.7 0h-.49a.4.4 0 0 0-.4.4v.58c0 .23.18.4.4.4h.5a.4.4 0 0 0 .4-.4v-.58a.4.4 0 0 0-.4-.4Zm2.87 0h-.49a.4.4 0 0 0-.4.4v.58c0 .23.18.4.4.4h.5a.4.4 0 0 0 .4-.4v-.58a.4.4 0 0 0-.4-.4Z" fill="#2D87F3"></path><path d="M16 16.8a3.17 3.17 0 1 0 0-6.36 3.17 3.17 0 0 0 0 6.35Z" fill="#FE921D"></path><path d="M15.78 13.62v-1.36a.21.21 0 0 1 .42 0v1.26l.48.4a.21.21 0 0 1-.01.33.21.21 0 0 1-.26-.01l-.55-.46-.02-.01a.2.2 0 0 1-.06-.15" fill="#fff"></path></svg>