<svg width="24" height="24" viewBox="0 0 20 20" fill="none" xmlns="http://www.w3.org/2000/svg"><path d="M11.116 1.72 5.488.85a1.898 1.898 0 0 0-2.155 1.856v14.588a1.898 1.898 0 0 0 2.158 1.855l5.625-.869a1.865 1.865 0 0 0 1.592-1.855V3.575a1.87 1.87 0 0 0-1.592-1.855" fill="#2D87F3"></path><path d="M17.642 9.584a.6.6 0 0 1-.232.472l-1.964 1.518a.446.446 0 0 1-.719-.353v-.51l-2.118-.01a.225.225 0 0 1-.223-.225v-1.8a.225.225 0 0 1 .224-.225l2.12.002-.004-.506a.446.446 0 0 1 .719-.354l1.965 1.52a.6.6 0 0 1 .232.471" fill="#FF6F4D"></path><path d="M17.642 9.584a.6.6 0 0 1-.232.472l-1.964 1.518a.446.446 0 0 1-.719-.353v-.51l-2.118-.01a.225.225 0 0 1-.223-.225v-1.8a.225.225 0 0 1 .224-.225l2.12.002-.004-.506a.446.446 0 0 1 .719-.354l1.965 1.52a.6.6 0 0 1 .232.471m-7.603-.908v1.802c0 .124.1.225.224.225h1.257c.124 0 .225-.1.225-.225V8.676c0-.124-.1-.224-.225-.224h-1.257c-.124 0-.224.1-.224.224m-.673 1.809a.224.224 0 0 1-.225.225h-.407a.61.61 0 0 1-.609-.61V9.069a.61.61 0 0 1 .61-.61h.406a.224.224 0 0 1 .225.225z" fill="#FF6F4D"></path></svg>