<svg width="32" height="32" viewBox="0 0 32 32" fill="none" xmlns="http://www.w3.org/2000/svg">
  <path d="M7.165 12.612L22.11 7.137a.572.572 0 01.734.34l1.849 5.048a1.704 1.704 0 01-1.015 2.185l-12.282 4.499a1.704 1.704 0 01-2.185-1.013l-2.046-5.584z" fill="#00CB8A"></path>
  <path d="M6.023 14.945L20.967 9.47a.572.572 0 01.735.341l1.849 5.047a1.704 1.704 0 01-1.014 2.186l-12.282 4.5A1.703 1.703 0 018.07 20.53l-2.046-5.585z" fill="#009E5C"></path>
  <path d="M7.578 12.035h17.025a.934.934 0 01.935.934v14.08a.935.935 0 01-.935.935H7.578a2.336 2.336 0 01-2.336-2.336V14.371a2.336 2.336 0 012.336-2.336z" fill="#8C2F39"></path>
  <path d="M25.37 22.598h-3.99a1.168 1.168 0 01-.97-.517l-.954-1.42a1.168 1.168 0 010-1.302l.954-1.421a1.168 1.168 0 01.97-.517h3.99a1.401 1.401 0 011.402 1.401v2.375a1.402 1.402 0 01-1.401 1.401z" fill="#AF6D74"></path>
  <path d="M7.8 10.132a2.672 2.672 0 100-5.344 2.672 2.672 0 000 5.344z" fill="#FFCB37"></path>
  <path d="M7.8 9.111a1.651 1.651 0 100-3.303 1.651 1.651 0 000 3.303z" fill="#FEA21E"></path>
  <path d="M14.835 7.128a1.565 1.565 0 100-3.13 1.565 1.565 0 000 3.13z" fill="#FFCB37"></path>
  <path d="M22.422 21.101a1.092 1.092 0 100-2.183 1.092 1.092 0 000 2.183z" fill="#F3EAEB"></path>
</svg>