<svg width="10" height="14" viewBox="0 0 10 14" fill="none" xmlns="http://www.w3.org/2000/svg">
  <path d="M4.3 7.71L3.249 6.65a.49.49 0 00-.357-.155.49.49 0 00-.356.155.5.5 0 00-.157.36.476.476 0 00.147.353l1.352 1.352c.12.12.261.18.422.18.16 0 .301-.06.422-.18l2.763-2.763a.49.49 0 00.155-.356.49.49 0 00-.155-.357.494.494 0 00-.713 0L4.3 7.71zm.7 5.56h-.157a.272.272 0 01-.134-.033c-1.362-.451-2.487-1.313-3.376-2.586A7.256 7.256 0 010 6.4V3.397c0-.252.073-.48.22-.682.145-.203.333-.35.563-.442L4.578.856C4.721.806 4.862.78 5 .78s.279.025.422.076l3.795 1.417c.23.092.418.239.564.442.146.203.219.43.219.682V6.4c0 1.56-.444 2.978-1.333 4.25-.89 1.274-2.014 2.136-3.376 2.587a.843.843 0 01-.291.034z" fill="#2D87F3"></path>
</svg>