<svg width="24" height="24" viewBox="0 0 20 20" fill="none" xmlns="http://www.w3.org/2000/svg"><path d="M17.339 8.075a2.177 2.177 0 0 1-1.717-2.944 1.02 1.02 0 0 0-.305-1.15 8.2 8.2 0 0 0-2.445-1.417 1.03 1.03 0 0 0-1.16.323 2.173 2.173 0 0 1-3.423 0 1.03 1.03 0 0 0-1.161-.323A8.2 8.2 0 0 0 4.85 3.842a1.03 1.03 0 0 0-.322 1.183 2.167 2.167 0 0 1-1.806 2.978 1.03 1.03 0 0 0-.9.828 8 8 0 0 0-.05 2.861 1.03 1.03 0 0 0 .906.861 2.166 2.166 0 0 1 1.767 3.061 1.01 1.01 0 0 0 .283 1.211A8.2 8.2 0 0 0 7.15 18.22q.17.059.35.061a1.02 1.02 0 0 0 .833-.433 2.15 2.15 0 0 1 1.778-.934 2.18 2.18 0 0 1 1.745.878 1.02 1.02 0 0 0 1.2.339 8.3 8.3 0 0 0 2.222-1.328 1.03 1.03 0 0 0 .3-1.172 2.167 2.167 0 0 1 1.739-2.995 1.03 1.03 0 0 0 .872-.844 8 8 0 0 0 .144-1.405q0-.749-.138-1.484a1.02 1.02 0 0 0-.856-.828m-4.561 2.312a2.778 2.778 0 1 1-5.556 0 2.778 2.778 0 0 1 5.556 0" fill="#2D87F3"></path></svg>