<svg width="24" height="24" fill="none" viewBox="0 0 24 24" xmlns="http://www.w3.org/2000/svg">
  <path fill="#595959" d="M12.5 16c.277 0 .5-.223.5-.5v-1c0-.277-.223-.5-.5-.5h-1c-.277 0-.5.223-.5.5v1c0 .277.223.5.5.5h1zM11 13h2c0-.447.412-1.02.863-1.645C14.404 10.603 15 9.776 15 9c0-1.477-1.121-3-3-3-2.047 0-3 1.79-3 3 0 .55.45 1 1 1s1-.45 1-1c0-.164.176-1 1-1 .988 0 1 .988 1 1 0 .537-.52 1.312-1.029 2.072-.49.732-.971 1.45-.971 1.928z"></path>
  <path fill="#595959" fill-rule="evenodd" d="M2 11c0-5.027 4.547-9 10-9s10 3.973 10 9c0 .324-.02.637-.059.945-.554 5.172-5.238 8.774-7.398 10.16L13 23.095v-3.196c-.12.012-.239.028-.356.044-.211.03-.421.058-.644.058-5.453 0-10-3.973-10-9zm18 0c0-3.809-3.508-7-8-7s-8 3.191-8 7 3.508 7 8 7c.617 0 1.219-.066 1.8-.188l1.2-.238v1.508c2.047-1.637 4.61-4.152 4.953-7.352l.004-.003v-.004c.027-.243.043-.48.043-.723z" clip-rule="evenodd"></path>
</svg>