<svg width="328" height="291" viewBox="0 0 328 291" fill="none" xmlns="http://www.w3.org/2000/svg">
  <rect x="201" width="127" height="165" rx="6" fill="white" />
  <rect x="216" y="23" width="97" height="6" rx="3" fill="#BCDEFF" />
  <rect x="216" y="37" width="41" height="6" rx="3" fill="#BCDEFF" />
  <rect x="216" y="51" width="97" height="55" rx="6" fill="#BCDEFF" />
  <rect x="216" y="114" width="97" height="4" rx="2" fill="#E3F2FF" />
  <rect x="216" y="126" width="97" height="4" rx="2" fill="#E3F2FF" />
  <rect x="216" y="138" width="97" height="4" rx="2" fill="#E3F2FF" />
  <path d="M142.083 307.998C143.765 276.317 147.048 237.195 152.318 230.631C161.313 219.43 158.738 212.834 158.738 212.834L238.978 219.574C238.978 219.574 248.263 223.979 250.685 239.147C252.238 248.897 257.186 282.108 259.704 307.998H142.083Z" fill="#284A75" />
  <path d="M190.701 307.997C192.495 295.139 190.058 281.9 190.749 268.859C190.782 268.293 190.846 267.672 191.264 267.298C191.803 266.82 192.713 266.995 193.236 267.489C193.767 267.983 194.008 268.692 194.241 269.377C198.473 282.075 202.705 294.773 206.938 307.471L204.966 307.997H190.701Z" fill="#1B3250" />
  <path d="M258.423 308C258.359 307.753 258.302 307.514 258.246 307.267C255.197 294.983 251.954 282.707 247.65 270.782C245.598 265.086 243.305 259.462 240.698 253.989C238.59 249.568 236.531 244.47 233.377 240.662C231.076 237.89 227.809 236.719 224.599 235.269C220.447 233.397 216.215 231.708 212.072 229.836C204.983 226.633 197.935 222.706 194.564 215.839L239.001 219.568C239.001 219.568 248.286 223.973 250.707 239.14C252.26 248.891 257.208 282.102 259.727 307.992H258.423V308Z" fill="#1B3250" />
  <path d="M111.05 164.973C118.709 149.814 135.139 120.61 149.517 117.177C169.052 112.516 165.375 123.239 188.474 120.968C198.74 119.957 205.957 116.181 212.386 112.986C217.736 112.437 223.143 112.556 228.317 113.775C236.386 115.671 242.638 120.578 244.842 128.704C248.399 141.8 246.387 155.78 244.891 169.02C244.126 175.768 243.41 182.515 243.346 189.31C243.306 193.914 243.386 198.527 242.92 203.123C242.292 209.305 240.353 214.778 236.378 218.705C218.935 224.807 171.868 224.393 161.81 218.753C152.099 213.304 151.423 189.987 151.44 182.905C151.134 189.159 139.918 223.094 121.075 227.611C109.344 230.423 99.8744 221.541 97.4366 213.527C94.9102 205.258 107.14 172.701 111.05 164.973Z" fill="#2B94FF" />
  <path d="M243.276 147.439C237.266 139.218 229.623 132.176 220.016 128.353C212.284 125.27 200.111 126.138 193.972 120.124C201.43 118.554 207.167 115.575 212.381 112.986C217.731 112.436 223.138 112.556 228.311 113.775C236.381 115.67 242.633 120.578 244.837 128.703C246.921 136.398 247.09 144.388 246.567 152.363C245.529 150.682 244.443 149.033 243.276 147.439Z" fill="#2D87F3" />
  <path d="M214.445 170.15C214.445 170.15 219.24 151.127 217.132 149.964C215.024 148.809 208.064 166.087 208.064 166.087L214.445 170.15Z" fill="#2D87F3" />
  <path d="M158.013 136.231C158.81 134.653 164.788 133.522 169.752 133.705C174.716 133.889 182.754 141.098 182.754 141.098C182.754 141.098 231.656 182.076 236.395 198.43C240.096 211.208 241.721 225.691 227.786 228.797C219.563 230.63 211.067 227.085 206.304 220.202C195.683 204.867 174.056 172.023 171.892 155.851C169.253 154.003 166.872 140.086 166.872 140.086C166.872 140.086 157.217 137.808 158.013 136.231Z" fill="#FFBE9D" />
  <path d="M207.053 203.893C208.276 203.51 209.66 202.475 209.861 201.113C211.711 188.486 207.198 175.804 201.936 164.468C200.029 160.358 197.913 156.279 195.588 152.312C210.424 165.663 233.234 187.522 236.387 198.428C240.089 211.206 241.714 225.688 227.779 228.795C219.556 230.627 211.06 227.082 206.296 220.199C203.014 215.46 198.677 209.039 194.188 201.965C198.396 204.172 202.789 205.231 207.053 203.893Z" fill="#FFBE9D" />
  <path d="M155.549 170.127L172.566 167.212C175.881 166.646 177.634 163.356 176.476 159.859L165.526 126.791C164.367 123.302 160.746 120.928 157.432 121.494L140.415 124.41C137.1 124.975 135.346 128.265 136.505 131.762L147.455 164.83C148.605 168.319 152.226 170.693 155.549 170.127Z" fill="#1B3250" />
  <path d="M154.389 170.313L169.836 167.652C172.846 167.134 174.398 163.9 173.296 160.427L162.885 127.543C161.783 124.07 158.452 121.68 155.443 122.197L139.995 124.858C136.986 125.376 135.433 128.61 136.535 132.083L146.946 164.968C148.049 168.433 151.38 170.831 154.389 170.313Z" fill="#284A75" />
  <path d="M143.073 132.856L149.598 131.9C150.395 131.78 150.829 131.031 150.564 130.227L150.145 128.944C149.888 128.14 149.027 127.574 148.23 127.694L141.705 128.65C140.909 128.769 140.474 129.518 140.74 130.323L141.158 131.605C141.424 132.41 142.285 132.975 143.073 132.856Z" fill="#1B3250" />
  <path d="M97.0995 201.45C104.864 181.255 136.942 160.026 136.942 160.026L142.083 155.995C142.003 154.465 136.097 146.826 137.425 141.512C138.752 136.199 158.698 135.163 157.974 138.652C157.708 139.935 155.978 140.907 153.902 141.616C149.775 142.269 145.728 143.305 145.728 143.305C145.728 143.305 150.33 142.843 153.902 141.616C157.764 141.002 161.707 140.732 162.479 141.95C164.072 144.476 148.689 149.909 148.689 149.909C148.689 149.909 167.355 144.412 165.424 147.543C163.493 150.673 151.529 155.995 151.529 155.995C151.529 155.995 163.437 162.057 159.502 166.088C159.502 166.088 129.741 223.253 121.092 227.602C112.427 231.968 89.3353 221.644 97.0995 201.45Z" fill="#FFBE9D" />
  <path d="M154.686 141.745C151.322 142.502 147.959 143.259 144.596 144.015C143.969 144.159 143.695 143.195 144.331 143.051C147.694 142.295 151.057 141.538 154.42 140.781C155.048 140.646 155.313 141.61 154.686 141.745Z" fill="#E88B05" />
  <path d="M157.969 147.749C154.67 148.442 151.468 149.509 148.418 150.935C147.839 151.206 147.324 150.354 147.912 150.075C151.033 148.609 154.316 147.494 157.703 146.785C158.331 146.65 158.604 147.613 157.969 147.749Z" fill="#E88B05" />
  <path d="M177.083 99.276L172.304 116.961C171.032 121.653 172.625 126.719 176.512 129.683C180.929 133.052 187.888 135.673 197.575 131.706C215.936 124.186 192.273 96.1294 192.273 96.1294L177.083 99.276Z" fill="#FFBE9D" />
  <path d="M173.179 117.319C176.687 115.845 182.464 113.391 184.25 109.783C186.478 105.274 180.058 106.62 177.709 106.795C176.671 106.875 175.842 106.612 175.222 106.142L172.093 117.741C172.455 117.597 172.817 117.47 173.179 117.319Z" fill="#1B3250" />
  <path d="M151.957 81.6812C149.036 91.2246 151.08 120.723 177.076 111.475C203.071 102.218 196.941 89.1296 196.941 89.1296C196.941 87.7594 197.528 66.6491 179.707 62.3076C161.893 57.9581 154.877 72.1378 151.957 81.6812Z" fill="#FFBE9D" />
  <path d="M183.333 86.3961C181.023 80.3976 177.202 75.7693 172.31 71.6349C169.365 69.1495 166.099 66.5445 162.478 64.9194C166.646 61.9242 172.221 60.4664 179.712 62.2906C197.533 66.6321 196.946 87.7424 196.946 89.1126C196.946 89.1126 201.653 99.1499 185.36 107.865C186.414 100.648 185.964 93.247 183.333 86.3961Z" fill="#FFBE9D" />
  <path d="M197.326 129.896C197.575 130.271 197.841 130.646 198.13 130.997C197.849 130.646 197.583 130.279 197.326 129.896Z" fill="#2D2F82" />
  <path d="M154.772 57.9415C161.683 53.4725 170.743 52.4289 178.499 55.217C185.306 57.6627 190.833 62.7371 197.439 65.6846C200.657 67.1264 204.157 68.0983 207.432 69.4127C208.252 70.8546 208.936 72.3761 209.467 73.9534C211.656 80.5096 211.1 87.6233 213.442 94.1874C215.767 100.696 219.001 107.148 218.486 114.246C218.116 119.448 215.646 125.271 211.285 128.41C206.901 131.565 202.009 131.389 197.262 129.764C196.69 128.896 196.208 127.972 195.846 126.984C194.639 123.654 194.824 120.006 195.033 116.469C195.323 111.41 195.612 106.344 195.91 101.285C196.095 98.0829 196.272 94.8088 195.347 91.7338C194.534 89.0254 192.909 86.6355 191.308 84.2935C189.441 81.5611 187.575 78.8367 185.716 76.1043C184.968 75.0049 184.195 73.8817 183.109 73.109L178.998 68.8551C173.897 67.222 168.651 70.297 163.695 72.3204C158.739 74.3438 151.707 74.6305 149.357 69.8588C147.201 65.573 150.733 60.5544 154.772 57.9415Z" fill="#284A75" />
  <path d="M199.3 132.296C200.008 133.005 200.788 133.659 201.609 134.248C200.788 133.659 200.008 133.005 199.3 132.296Z" fill="#2D2F82" />
  <path d="M211.267 128.417C215.628 125.279 218.098 119.455 218.468 114.253C218.975 107.156 215.741 100.703 213.424 94.1948C211.082 87.6307 211.637 80.5169 209.449 73.9608C208.918 72.3835 208.234 70.8699 207.413 69.4201C207.413 69.4201 207.413 69.4121 207.405 69.4121C207.663 69.5157 207.92 69.6272 208.17 69.7308C208.266 69.7706 208.363 69.8104 208.467 69.8582C208.685 69.9538 208.894 70.0494 209.111 70.153C209.248 70.2167 209.377 70.2725 209.513 70.3362C209.706 70.4318 209.892 70.5194 210.085 70.615C210.237 70.6947 210.39 70.7664 210.535 70.854C210.704 70.9416 210.873 71.0372 211.042 71.1328C211.203 71.2284 211.372 71.324 211.533 71.4196C211.686 71.5152 211.839 71.6028 211.991 71.6984C212.168 71.8099 212.337 71.9294 212.506 72.0409C212.643 72.1286 212.772 72.2242 212.909 72.3197C213.102 72.4631 213.287 72.6065 213.48 72.7579C213.585 72.8376 213.689 72.9172 213.794 73.0048C214.083 73.2438 214.365 73.4908 214.638 73.7537C220.464 79.33 220.81 88.252 223.135 95.9393C225.058 102.288 228.509 108.112 230.392 114.477C232.275 120.841 232.291 128.354 227.946 133.404C223.159 138.972 214.453 139.721 207.494 137.292C207.035 137.132 206.585 136.957 206.134 136.766C206.046 136.726 205.949 136.686 205.861 136.654C205.418 136.463 204.984 136.264 204.557 136.049C204.493 136.017 204.437 135.985 204.372 135.953C203.962 135.738 203.551 135.515 203.149 135.276C203.109 135.252 203.061 135.228 203.02 135.204C202.594 134.95 202.184 134.679 201.773 134.392C201.717 134.352 201.653 134.312 201.596 134.264C200.768 133.667 199.995 133.022 199.287 132.313C199.255 132.281 199.215 132.241 199.183 132.209C198.829 131.851 198.491 131.476 198.177 131.086C198.161 131.062 198.145 131.038 198.121 131.014C197.831 130.656 197.565 130.289 197.316 129.915C197.284 129.867 197.252 129.827 197.22 129.779C197.228 129.779 197.228 129.779 197.236 129.787C201.991 131.397 206.89 131.572 211.267 128.417Z" fill="#1B3250" />
  <path d="M200.479 88.9386L198.008 91.3842C195.756 93.6147 192.103 93.6147 189.85 91.3842L189.77 91.3046C187.517 89.074 187.517 85.4574 189.77 83.2269L192.24 80.7813C194.493 78.5508 198.145 78.5508 200.398 80.7813L200.479 80.8609C202.723 83.0915 202.723 86.7081 200.479 88.9386Z" fill="#FFBE9D" />
  <path d="M193.131 87.2437C194.008 86.2877 194.885 85.3238 195.762 84.3679C196.116 83.9776 196.832 83.9855 197.187 84.3679C197.573 84.7821 197.565 85.3637 197.187 85.7779C196.31 86.7338 195.433 87.6977 194.556 88.6537C194.202 89.044 193.485 89.036 193.131 88.6537C192.745 88.2394 192.753 87.6579 193.131 87.2437Z" fill="#1B3250" />
  <path d="M201.566 106.242C202.266 106.242 202.966 106.13 203.65 105.883C207.279 104.601 209.033 100.212 207.544 96.101C206.836 94.1413 205.509 92.5322 203.803 91.5523C202.033 90.5406 200.07 90.3335 198.276 90.9708C196.481 91.6081 195.098 92.9942 194.365 94.8901C193.665 96.7144 193.665 98.8015 194.373 100.753C195.58 104.099 198.549 106.242 201.566 106.242ZM200.368 93.0101C201.116 93.0101 201.872 93.2173 202.596 93.6315C203.811 94.3245 204.761 95.4876 205.267 96.9056C206.305 99.7734 205.211 102.793 202.83 103.637C200.448 104.481 197.672 102.824 196.642 99.9566C196.127 98.5307 196.119 97.041 196.618 95.7425C197.085 94.5157 197.962 93.6235 199.08 93.2252C199.499 93.0818 199.933 93.0101 200.368 93.0101Z" fill="white" />
  <path d="M165.675 84.9442C165.224 87.0945 164.91 89.2684 164.762 91.466C164.729 91.9859 164.696 92.4998 164.679 93.0197C164.668 93.445 164.718 93.705 165.086 93.9117C165.89 94.3725 166.919 94.4316 167.794 94.2544C168.658 94.0771 169.032 95.5008 168.157 95.6781C166.974 95.9203 165.741 95.8376 164.63 95.3118C164.206 95.1109 163.799 94.8097 163.556 94.3666C163.265 93.8408 163.287 93.2324 163.314 92.6416C163.43 89.9183 163.782 87.2067 164.343 84.5484C164.547 83.6268 165.873 84.0167 165.675 84.9442Z" fill="#1B3250" />
  <path d="M157.626 86.6162C157.739 86.887 157.844 87.1579 157.956 87.4208C157.996 87.5562 158.005 87.6837 157.972 87.8191C157.964 87.9545 157.924 88.074 157.852 88.1855C157.787 88.305 157.699 88.3926 157.594 88.4643C157.498 88.552 157.385 88.6157 157.248 88.6396C157.16 88.6476 157.071 88.6635 156.983 88.6715C156.798 88.6715 156.629 88.6237 156.476 88.536C156.411 88.4803 156.339 88.4325 156.275 88.3767C156.154 88.2492 156.065 88.1059 156.017 87.9386C155.905 87.6677 155.8 87.4048 155.687 87.134C155.647 86.9986 155.639 86.8711 155.671 86.7357C155.679 86.6003 155.72 86.4808 155.792 86.3692C155.856 86.2497 155.945 86.1621 156.049 86.0904C156.146 86.0028 156.259 85.9391 156.395 85.9152C156.484 85.9072 156.572 85.8913 156.661 85.8833C156.846 85.8833 157.015 85.9311 157.168 86.0187C157.232 86.0745 157.305 86.1223 157.369 86.178C157.498 86.2975 157.578 86.4489 157.626 86.6162Z" fill="#1B3250" />
  <path d="M176.563 85.5415C176.676 85.8123 176.781 86.0832 176.893 86.346C176.933 86.4815 176.942 86.6089 176.909 86.7443C176.901 86.8798 176.861 86.9993 176.789 87.1108C176.724 87.2303 176.636 87.3179 176.531 87.3896C176.435 87.4772 176.322 87.533 176.185 87.5649C176.097 87.5728 176.008 87.5888 175.92 87.5967C175.735 87.5967 175.566 87.5489 175.413 87.4613C175.348 87.4055 175.276 87.3577 175.212 87.302C175.091 87.1745 175.002 87.0311 174.954 86.8638C174.842 86.593 174.737 86.3221 174.624 86.0593C174.584 85.9238 174.576 85.7964 174.608 85.661C174.616 85.5255 174.657 85.406 174.729 85.2945C174.793 85.175 174.882 85.0874 174.986 85.0157C175.083 84.9281 175.196 84.8723 175.332 84.8405C175.421 84.8325 175.509 84.8166 175.598 84.8086C175.783 84.8086 175.952 84.8564 176.105 84.944C176.169 84.9998 176.242 85.0476 176.306 85.1033C176.427 85.2228 176.515 85.3742 176.563 85.5415Z" fill="#1B3250" />
  <path d="M174.884 97.7095C174.197 100.056 171.725 104.044 167.329 101.229" stroke="#1B3250" stroke-linecap="round" />
  <rect y="125" width="113" height="88" rx="6" fill="white" />
  <rect x="8" y="133" width="97" height="6" rx="3" fill="#BCDEFF" />
  <rect x="8" y="147" width="41" height="6" rx="3" fill="#BCDEFF" />
  <rect x="8" y="161" width="97" height="4" rx="2" fill="#E3F2FF" />
  <rect x="8" y="173" width="97" height="4" rx="2" fill="#E3F2FF" />
  <rect x="8" y="185" width="97" height="4" rx="2" fill="#E3F2FF" />
  <rect x="8" y="197" width="71" height="4" rx="2" fill="#E3F2FF" />
</svg>