<svg xmlns="http://www.w3.org/2000/svg" width="19" height="18" viewBox="0 0 19 18" fill="none" class="mdl-js">
  <path d="M2.75 3C1.92275 3 1.25 3.67275 1.25 4.5V13.5C1.25 14.3273 1.92275 15 2.75 15H16.25C17.0773 15 17.75 14.3273 17.75 13.5V4.5C17.75 3.67275 17.0773 3 16.25 3H2.75ZM5 6.75C5.82875 6.75 6.5 7.42125 6.5 8.25V10.875C6.5 11.082 6.332 11.25 6.125 11.25C5.918 11.25 5.75 11.082 5.75 10.875V9.75H4.25V10.875C4.25 11.082 4.082 11.25 3.875 11.25C3.668 11.25 3.5 11.082 3.5 10.875V8.25C3.5 7.42125 4.17125 6.75 5 6.75ZM8.75586 6.75H9.53809C9.76684 6.75 9.97186 6.78708 10.1519 6.86133C10.3319 6.93558 10.4844 7.03912 10.6104 7.17188C10.7364 7.30463 10.8329 7.46131 10.9004 7.64355C10.9671 7.82655 11 8.026 11 8.23975C11 8.2435 10.9985 8.24625 10.9985 8.25V9.75C10.9985 9.75375 11 9.7565 11 9.76025C11 9.97475 10.9671 10.1727 10.9004 10.355C10.8329 10.5372 10.7364 10.6954 10.6104 10.8281C10.4844 10.9609 10.3319 11.0644 10.1519 11.1387C9.97186 11.2137 9.76684 11.25 9.53809 11.25H8.75586C8.34186 11.25 8.00586 10.914 8.00586 10.5V7.5C8.00586 7.086 8.34186 6.75 8.75586 6.75ZM13.9751 6.75586C14.2511 6.75586 14.4679 6.81132 14.7222 6.94482C14.9667 7.07307 15.1591 7.25435 15.2964 7.48535C15.3459 7.5686 15.3872 7.65892 15.4194 7.75342C15.4862 7.94917 15.3808 8.16274 15.1851 8.22949C14.9886 8.29849 14.7772 8.19162 14.7104 7.99512C14.6947 7.95012 14.6751 7.90739 14.6519 7.86914C14.5859 7.75814 14.4943 7.6729 14.3721 7.6084C14.2408 7.5394 14.1491 7.50586 13.9766 7.50586C13.7126 7.50586 13.5865 7.57257 13.4463 7.69482C13.3128 7.81182 13.25 7.9492 13.25 8.12695C13.25 8.24695 13.3278 8.37418 13.4478 8.45068C13.5385 8.50843 13.774 8.5616 13.981 8.61035C14.467 8.72435 15.0187 8.85421 15.3037 9.26221C15.4342 9.44971 15.5 9.68419 15.5 9.96094C15.5 10.3217 15.2308 11.2573 14 11.2573C13.235 11.2573 12.7058 10.8752 12.5483 10.2114C12.5003 10.0097 12.6249 9.8075 12.8267 9.76025C13.0299 9.7115 13.2298 9.83682 13.2778 10.0386C13.3296 10.2568 13.4593 10.5073 14 10.5073C14.6803 10.5073 14.7463 10.0855 14.75 9.95654C14.75 9.84554 14.7282 9.74912 14.6885 9.69287C14.5677 9.51962 14.1298 9.41702 13.8096 9.34277C13.5186 9.27452 13.2444 9.21096 13.0464 9.08496C12.7096 8.86971 12.5 8.50345 12.5 8.12695C12.5 7.7332 12.6557 7.38886 12.9512 7.13086C13.2512 6.86836 13.5581 6.75586 13.9751 6.75586ZM5 7.5C4.58675 7.5 4.25 7.83675 4.25 8.25V9H5.75V8.25C5.75 7.83675 5.41325 7.5 5 7.5ZM8.75586 7.5V10.5H9.53809C9.66784 10.5 9.77771 10.4818 9.86621 10.4458C9.94721 10.4121 10.0137 10.3695 10.0654 10.314C10.1217 10.2547 10.1636 10.1835 10.1958 10.0957C10.2281 10.008 10.2455 9.90495 10.2485 9.79395V9.75V8.25V8.20312V8.20166C10.2455 8.09141 10.2281 7.98987 10.1958 7.90137C10.1643 7.81587 10.1217 7.74529 10.0654 7.68604C10.0137 7.63129 9.94725 7.58795 9.86475 7.5542C9.77775 7.51895 9.66709 7.5 9.53809 7.5H8.75586Z" fill="#2D87F3" />
</svg>